<?xml version="1.0" encoding="UTF-8"?>
<svg version="1.1" xmlns="http://www.w3.org/2000/svg" width="1320" height="1000">
<path d="M0 0 C435.6 0 871.2 0 1320 0 C1320 330 1320 660 1320 1000 C884.4 1000 448.8 1000 0 1000 C0 670 0 340 0 0 Z " fill="#F8F6F6" transform="translate(0,0)"/>
<path d="M0 0 C0.8788172 -0.00297112 1.7576344 -0.00594224 2.66308242 -0.0090034 C5.62556155 -0.01771652 8.58800039 -0.01920086 11.55049133 -0.02069092 C13.66748135 -0.02531731 15.78447054 -0.03034173 17.90145874 -0.03573608 C23.66608896 -0.0488809 29.43070753 -0.05530931 35.19535041 -0.05974674 C38.79520116 -0.06267463 42.3950487 -0.06677894 45.99489784 -0.07125092 C57.25294534 -0.08493247 68.51098553 -0.09459542 79.76904076 -0.09845281 C92.77366315 -0.10293276 105.7781804 -0.12047504 118.78277081 -0.1494534 C128.82785022 -0.17106135 138.87290002 -0.18115665 148.91800243 -0.18249393 C154.92040945 -0.18354276 160.92271773 -0.18946702 166.92510033 -0.20731354 C172.5729597 -0.22377839 178.22064593 -0.22595735 183.86852074 -0.21717453 C185.94094811 -0.21640326 188.01338473 -0.22075869 190.08578873 -0.23063278 C192.91669263 -0.24332899 195.74698122 -0.23748793 198.57788086 -0.22705078 C199.39657156 -0.23510719 200.21526226 -0.24316359 201.05876178 -0.25146413 C207.43412788 -0.19655403 211.72421941 1.42485848 217.23139954 4.70294189 C223.97460545 11.6236006 225.34132423 19.39108544 225.23458862 28.7224884 C225.24168301 29.84765946 225.2487774 30.97283051 225.25608677 32.13209766 C225.2736081 35.88075665 225.2555904 39.62837079 225.23750305 43.37701416 C225.24264407 46.07324072 225.24973866 48.76939835 225.25918579 51.46560669 C225.27751563 58.01529607 225.26908172 64.5646861 225.25109757 71.114366 C225.23704381 76.43920524 225.23318471 81.7639635 225.23653984 87.0888195 C225.23701728 87.84809044 225.23749473 88.60736138 225.23798664 89.38964052 C225.23901301 90.93230862 225.24006837 92.4749767 225.2411524 94.01764476 C225.24970989 107.64286537 225.23307482 121.2679419 225.20332336 134.89312744 C225.17448257 148.10152232 225.16740633 161.3097097 225.18281555 174.51812744 C225.19959133 188.91754561 225.20359835 203.31686537 225.18610519 217.71628612 C225.18426089 219.25281742 225.18242616 220.78934873 225.18060112 222.32588005 C225.17968903 223.08179409 225.17877694 223.83770813 225.17783721 224.61652865 C225.1722408 229.93291777 225.17553057 235.24925872 225.18214607 240.56564522 C225.18989191 247.04742981 225.1830817 253.52901046 225.15797103 260.01075406 C225.14550534 263.31526823 225.14145364 266.61940178 225.1505127 269.92393684 C225.1592136 273.51141655 225.14323853 277.09797615 225.12106323 280.68537903 C225.13342438 282.24084004 225.13342438 282.24084004 225.14603525 283.82772452 C225.05558366 291.7669119 223.35635088 297.89690954 218.16889954 304.01544189 C211.92796941 309.19084737 207.07279011 310.28968526 199.10600281 310.30107117 C198.22774232 310.30615899 197.34948182 310.31124681 196.44460738 310.3164888 C193.48991339 310.33223487 190.5352439 310.34074407 187.58052063 310.34918213 C185.46662744 310.35871889 183.35273582 310.36860997 181.23884583 310.37882996 C174.28586179 310.4102369 167.33286571 310.43048484 160.37983704 310.44903564 C159.19716263 310.45233297 158.01448823 310.45563029 156.79597521 310.45902753 C145.64319658 310.48981025 134.49041528 310.51651961 123.33760643 310.53344631 C109.06968787 310.55535412 94.80214558 310.59732536 80.53437746 310.66688389 C70.50368815 310.71412578 60.47310037 310.73838021 50.4423033 310.7456432 C44.45088507 310.7505993 38.45989077 310.765677 32.4685936 310.8053875 C26.8296066 310.84226975 21.19128539 310.85065791 15.55220032 310.83738136 C13.48542746 310.83743529 11.41862498 310.84772077 9.35196304 310.869133 C-9.49704899 311.05394228 -9.49704899 311.05394228 -15.86321068 305.83126926 C-20.94824112 300.21315241 -23.50933278 294.96056447 -23.53061485 287.3629961 C-23.5356894 286.39916502 -23.54076394 285.43533394 -23.54599226 284.44229585 C-23.54673889 282.85812892 -23.54673889 282.85812892 -23.54750061 281.24195862 C-23.55188286 280.11783056 -23.55626512 278.9937025 -23.56078017 277.83550996 C-23.57417434 274.05474666 -23.58034843 270.27400667 -23.58647156 266.4932251 C-23.59384603 263.78805764 -23.60263586 261.08289507 -23.61125183 258.37773132 C-23.63575744 250.25026121 -23.65039959 242.12278503 -23.6633119 233.99528936 C-23.66702495 231.69926947 -23.67099808 229.40325019 -23.67506456 227.1072309 C-23.70030047 212.84497063 -23.72235046 198.58270938 -23.73479271 184.32043171 C-23.73772233 181.01800343 -23.74068401 177.71557518 -23.74369812 174.41314697 C-23.74444417 173.5923601 -23.74519022 172.77157322 -23.74595888 171.92591401 C-23.75861176 158.63053806 -23.7918352 145.33529585 -23.83349995 132.03998242 C-23.87593795 118.3858716 -23.89948982 104.73182923 -23.90471327 91.07765263 C-23.9081251 83.41295242 -23.91985338 75.7484613 -23.95281601 68.08382607 C-23.98084328 61.55616492 -23.99180417 55.02875576 -23.98062055 48.50103913 C-23.97544058 45.17206353 -23.98101259 41.84404203 -24.00308609 38.51507187 C-24.02574526 34.90088941 -24.01749569 31.28803257 -24.00160217 27.67384338 C-24.01548426 26.62888571 -24.02936635 25.58392803 -24.0436691 24.50730497 C-23.95828433 16.61757066 -21.89451623 10.62243379 -16.22563171 4.98419189 C-15.5591864 4.54075439 -14.89274109 4.09731689 -14.20610046 3.64044189 C-13.53192078 3.17637939 -12.85774109 2.71231689 -12.16313171 2.23419189 C-8.14966555 -0.24653774 -4.60678181 -0.00481017 0 0 Z " fill="#3F72AF" transform="translate(221.3936004638672,344.85955810546875)"/>
<path d="M0 0 C15.18 0 30.36 0 46 0 C46.33 16.5 46.66 33 47 50 C63.83 50.33 80.66 50.66 98 51 C98 66.51 98 82.02 98 98 C72.755 98.495 72.755 98.495 47 99 C46.67 110.55 46.34 122.1 46 134 C35.07979481 131.66662282 24.2508003 129.10152848 13.4375 126.3125 C12.22989014 126.00304443 11.02228027 125.69358887 9.77807617 125.37475586 C8.65377197 125.08221924 7.52946777 124.78968262 6.37109375 124.48828125 C5.35974365 124.22571533 4.34839355 123.96314941 3.30639648 123.69262695 C1 123 1 123 0 122 C-0.33 114.41 -0.66 106.82 -1 99 C-17.83 98.67 -34.66 98.34 -52 98 C-52 82.49 -52 66.98 -52 51 C-34.84 50.67 -17.68 50.34 0 50 C0 33.5 0 17 0 0 Z " fill="#F6F5F6" transform="translate(303,390)"/>
<path d="M0 0 C4.95 0 9.9 0 15 0 C15 41.58 15 83.16 15 126 C10.05 126 5.1 126 0 126 C-0.33 122.7 -0.66 119.4 -1 116 C-2.11375 117.0725 -3.2275 118.145 -4.375 119.25 C-13.92091792 127.40621756 -23.7247034 128.02081549 -35.86230469 127.22314453 C-45.67110738 126.19924713 -53.99326315 119.84208917 -60.25 112.5 C-67.27580674 102.31454274 -69.39229904 90.10637168 -68 78 C-65.85167345 66.9914944 -60.08810441 57.69551058 -51.0625 51 C-41.163254 44.7737774 -30.5764223 43.14996654 -19 45 C-11.9296961 47.11767556 -6.20959399 50.79040601 -1 56 C-0.67 37.52 -0.34 19.04 0 0 Z " fill="#4173B0" transform="translate(789,437)"/>
<path d="M0 0 C9.82329037 6.05273447 15.8856203 14.81311091 19.5078125 25.6796875 C20.74075695 38.37589394 20.27644368 49.86916173 12.48828125 60.4140625 C5.7236572 68.42261917 -3.11179557 75.66997056 -13.86499023 76.96557617 C-16.39351824 77.0809301 -18.89892671 77.08938186 -21.4296875 77.0546875 C-22.27208984 77.06628906 -23.11449219 77.07789063 -23.98242188 77.08984375 C-34.92030483 77.03932235 -43.71634104 73.11210525 -51.66015625 65.640625 C-61.31150266 55.39172807 -63.93806623 45.42591661 -63.69921875 31.69140625 C-63.3042923 21.30944409 -58.90028658 13.37439091 -51.796875 5.89453125 C-37.21504074 -7.36476455 -17.19582963 -9.11001632 0 0 Z " fill="#4274B0" transform="translate(1040.4921875,487.3203125)"/>
<path d="M0 0 C4.71776119 4.35945021 7.03693065 8.94370975 7.375 15.3125 C7.22224454 21.42271848 4.97450357 25.91266765 0.8125 30.3125 C-5.48132108 34.08879265 -12.62966531 35.49278708 -19.80517578 36.62573242 C-21.04849167 36.83121452 -21.04849167 36.83121452 -22.31692505 37.04084778 C-25.02524074 37.48643145 -27.73515206 37.92125858 -30.4453125 38.35546875 C-32.34390156 38.66457136 -34.24240904 38.97417544 -36.14083862 39.28425598 C-40.10567302 39.93017119 -44.07129916 40.57090231 -48.03759766 41.20776367 C-53.11067475 42.02263929 -58.18177704 42.84912169 -63.25236702 43.67931652 C-67.16711617 44.31918718 -71.08273745 44.95358032 -74.99865341 45.58626747 C-76.86872907 45.88894966 -78.73855808 46.19315999 -80.60812759 46.49895287 C-83.22244453 46.9255763 -85.83782359 47.34496594 -88.45361328 47.76245117 C-89.60089905 47.95174698 -89.60089905 47.95174698 -90.7713623 48.14486694 C-98.19284239 49.31401701 -104.18885718 49.71516881 -111 46 C-115.29933296 42.65717001 -117.94989514 39.46054529 -119 34 C-119.73453792 27.07927554 -119.1712531 22.63682851 -115 17 C-109.15006655 11.15006655 -101.21358136 9.616618 -93.32421875 8.37426758 C-92.49709381 8.23727951 -91.66996887 8.10029144 -90.81777954 7.95915222 C-88.10895246 7.51276587 -85.39837188 7.07831212 -82.6875 6.64453125 C-80.78986975 6.33547493 -78.89232874 6.02587022 -76.99487305 5.71574402 C-73.02833813 5.06931229 -69.06092875 4.42864353 -65.09277344 3.79223633 C-60.02070421 2.97843797 -54.95085892 2.1516442 -49.88157654 1.32068348 C-45.96687798 0.68022893 -42.05118766 0.04601938 -38.13516235 -0.58626747 C-36.26587504 -0.88871452 -34.39687121 -1.19291931 -32.52816772 -1.49895287 C-29.91166434 -1.92635006 -27.29396203 -2.3454696 -24.67578125 -2.76245117 C-23.9129483 -2.88864838 -23.15011536 -3.01484558 -22.36416626 -3.14486694 C-14.12475752 -4.43780813 -7.10674425 -4.94580703 0 0 Z " fill="#F4F3F5" transform="translate(390,561)"/>
<path d="M0 0 C10.2634948 6.4932314 10.2634948 6.4932314 11.7890625 11.16015625 C11.87929688 11.74667969 11.96953125 12.33320313 12.0625 12.9375 C12.7225 12.9375 13.3825 12.9375 14.0625 12.9375 C14.2275 12.23625 14.3925 11.535 14.5625 10.8125 C17.3023707 5.56108116 23.32670045 1.51735327 28.828125 -0.58984375 C39.83523034 -2.91826988 49.40927086 -1.05443748 58.875 4.625 C67.95075048 14.2193648 68.37269145 26.15566747 68.2578125 38.7265625 C68.2549826 39.91099945 68.25215271 41.0954364 68.24923706 42.31576538 C68.23812395 46.06478369 68.2130358 49.81355501 68.1875 53.5625 C68.17745874 56.11848611 68.1683349 58.674476 68.16015625 61.23046875 C68.13821367 67.46623967 68.10374541 73.70182809 68.0625 79.9375 C63.1125 79.9375 58.1625 79.9375 53.0625 79.9375 C53.0531543 78.34357422 53.04380859 76.74964844 53.03417969 75.10742188 C52.99419853 69.17322212 52.92841573 63.23953634 52.85498047 57.30566406 C52.82681819 54.74127829 52.80558019 52.17680647 52.79150391 49.61230469 C52.77000974 45.91817323 52.72332255 42.22507113 52.671875 38.53125 C52.67064636 37.3913562 52.66941772 36.2514624 52.66815186 35.07702637 C52.54359522 28.25172994 51.70957203 23.7530553 48.0625 17.9375 C43.33990795 13.50112565 38.27393067 13.57856019 32.07421875 13.67578125 C27.73514311 14.05284749 25.18710943 14.91187696 22.0625 17.9375 C17.22263566 25.07472217 16.32421581 31.61505106 16.35546875 40.0703125 C16.33278679 41.74708572 16.33278679 41.74708572 16.30964661 43.45773315 C16.26700454 46.99286442 16.25795384 50.52713792 16.25 54.0625 C16.2268376 56.47398077 16.20146868 58.88544141 16.17382812 61.296875 C16.11120714 67.17715839 16.0786886 73.05691291 16.0625 78.9375 C11.1125 78.9375 6.1625 78.9375 1.0625 78.9375 C1.04791748 77.379104 1.03333496 75.82070801 1.01831055 74.21508789 C0.9601208 68.40577827 0.88288873 62.59684788 0.80004883 56.7878418 C0.76689668 54.27879006 0.73883486 51.76966548 0.71606445 49.26049805 C0.6823403 45.64340319 0.63001373 42.02696998 0.57421875 38.41015625 C0.56782883 37.29729752 0.5614389 36.18443878 0.55485535 35.03785706 C0.43979278 28.87368246 0.30687459 22.37872839 -2.9375 16.9375 C-4.87614762 15.71920517 -4.87614762 15.71920517 -6.9375 14.9375 C-7.5975 14.6075 -8.2575 14.2775 -8.9375 13.9375 C-14.649905 13.45620621 -20.03534992 13.14205542 -25.375 15.375 C-30.95991252 20.95991252 -35.00119533 26.8356496 -35.14282227 34.86791992 C-35.16276749 35.86873093 -35.18271271 36.86954193 -35.20326233 37.90068054 C-35.21997482 38.97888565 -35.23668732 40.05709076 -35.25390625 41.16796875 C-35.27468735 42.27352615 -35.29546844 43.37908356 -35.31687927 44.5181427 C-35.38232332 48.0536979 -35.44123603 51.58932806 -35.5 55.125 C-35.5431901 57.52019008 -35.58680454 59.91537255 -35.63085938 62.31054688 C-35.73799952 68.18612088 -35.83928168 74.06177036 -35.9375 79.9375 C-40.8875 79.9375 -45.8375 79.9375 -50.9375 79.9375 C-50.9375 53.8675 -50.9375 27.7975 -50.9375 0.9375 C-46.3175 0.9375 -41.6975 0.9375 -36.9375 0.9375 C-36.6075 4.2375 -36.2775 7.5375 -35.9375 10.9375 C-35.36 10.07125 -34.7825 9.205 -34.1875 8.3125 C-26.04955237 -1.23481287 -11.70452647 -4.22218078 0 0 Z " fill="#4173AF" transform="translate(541.9375,483.0625)"/>
<path d="M0 0 C8.51126722 5.99475318 13.601046 13.55302015 17.01171875 23.2734375 C18.0922792 29.66675353 17.76171875 36.22694948 17.76171875 42.7109375 C-3.02828125 42.7109375 -23.81828125 42.7109375 -45.23828125 42.7109375 C-41.98164759 53.96473475 -41.98164759 53.96473475 -33.67578125 61.0234375 C-26.21445943 64.68626821 -17.20396699 65.26918003 -9.23828125 62.76953125 C-4.52038686 60.52993555 -1.07699649 58.22707538 1.76171875 53.7109375 C6.74184636 55.22006708 10.00431817 58.26755599 13.76171875 61.7109375 C10.60889876 68.81243495 3.80331755 72.94459512 -3.23828125 75.7109375 C-13.81503644 79.38806478 -28.05096332 80.14157313 -38.42333984 75.56005859 C-49.90067253 69.58954309 -55.44768314 61.49797409 -60.23828125 49.7109375 C-62.99249037 37.67520283 -62.28778755 25.22910162 -55.953125 14.54296875 C-43.71370464 -3.0831603 -19.5529424 -11.26085688 0 0 Z " fill="#4274B0" transform="translate(689.23828125,486.2890625)"/>
<path d="M0 0 C0.69495071 0.18349503 1.38990143 0.36699005 2.10591125 0.55604553 C3.58882801 0.94837972 5.07062952 1.34495036 6.55136108 1.74545288 C10.47279622 2.80540005 14.4027564 3.83285136 18.33203125 4.86328125 C19.11630997 5.0697377 19.90058868 5.27619415 20.70863342 5.48890686 C27.49768863 7.26818492 34.31767324 8.88557219 41.1640625 10.4296875 C49.70755907 12.36413996 58.22668892 14.37352657 66.7265625 16.4921875 C67.72131592 16.73864014 68.71606934 16.98509277 69.7409668 17.23901367 C74.38891366 18.40573908 78.95646431 19.63436734 83.4765625 21.2421875 C83.4765625 21.9021875 83.4765625 22.5621875 83.4765625 23.2421875 C84.3428125 23.335 84.3428125 23.335 85.2265625 23.4296875 C88.47209458 24.6016852 89.58097114 26.39880045 91.4765625 29.2421875 C93.2381195 33.38184646 93.68999963 36.76000769 93.4765625 41.2421875 C91.8265625 41.5721875 90.1765625 41.9021875 88.4765625 42.2421875 C88.36441406 41.13810547 88.36441406 41.13810547 88.25 40.01171875 C88.11851562 39.03589844 87.98703125 38.06007813 87.8515625 37.0546875 C87.73554688 36.09175781 87.61953125 35.12882813 87.5 34.13671875 C86.134543 30.2748728 83.90233109 28.29584512 80.4765625 26.2421875 C77.83895589 25.26593051 75.43721393 24.5162472 72.7265625 23.8671875 C71.15098319 23.45986156 69.57546645 23.0522935 68 22.64453125 C67.1347168 22.42651855 66.26943359 22.20850586 65.37792969 21.98388672 C60.8811881 20.83434945 56.40448664 19.61198323 51.92480469 18.39794922 C46.77791875 17.00326832 41.62720595 15.62291425 36.4765625 14.2421875 C36.36441406 15.3353125 36.25226563 16.4284375 36.13671875 17.5546875 C35.47082414 22.88184437 34.19608361 28.03509895 32.9140625 33.2421875 C32.56311523 34.69044922 32.56311523 34.69044922 32.20507812 36.16796875 C31.63283116 38.52702767 31.05658421 40.88503042 30.4765625 43.2421875 C31.22421875 43.37496094 31.971875 43.50773438 32.7421875 43.64453125 C33.72703125 43.82113281 34.711875 43.99773438 35.7265625 44.1796875 C36.70109375 44.35371094 37.675625 44.52773438 38.6796875 44.70703125 C40.97378045 45.14598479 43.21948221 45.64567342 45.4765625 46.2421875 C45.4765625 47.2321875 45.4765625 48.2221875 45.4765625 49.2421875 C37.81138854 50.91224009 31.49681293 49.16933924 24 47.234375 C22.70320658 46.90785085 21.40621576 46.58210976 20.10903931 46.2571106 C17.40191798 45.57529217 14.69771318 44.88312647 11.99511719 44.18359375 C8.54609342 43.2918979 5.09080423 42.42799063 1.6327877 41.57192802 C-1.04351388 40.9058397 -3.71570034 40.22430657 -6.38694382 39.53824234 C-8.27345731 39.05683799 -10.16339739 38.58892583 -12.05337524 38.12130737 C-19.72780169 36.10685659 -24.64646701 34.30962854 -29.3359375 27.6796875 C-31.75574566 22.71271285 -32.17891867 17.69837586 -31.5234375 12.2421875 C-29.64706063 6.84894426 -26.11794145 3.45834026 -21.5234375 0.2421875 C-14.34390695 -3.03542427 -7.38576591 -1.98800278 0 0 Z " fill="#F3F3F4" transform="translate(274.5234375,511.7578125)"/>
<path d="M0 0 C0.7827832 0.00572021 1.56556641 0.01144043 2.37207031 0.01733398 C10.22444986 0.25677513 17.37987012 1.95238094 23.3125 7.390625 C25 9.3125 25 9.3125 27.25 12.5 C24.08047153 15.76008643 20.85062011 18.72237877 17.25 21.5 C14.23602401 20.43624377 12.17160404 19.43498872 9.6875 17.375 C4.59835961 14.59910524 -0.07426854 14.74788804 -5.75 15.5 C-8.74801604 16.43826798 -9.53082451 17.09589321 -11.75 19.5 C-12.6668022 22.95678447 -12.6668022 22.95678447 -11.75 26.5 C-7.50446343 32.4068335 -1.60419706 33.3330385 5.1875 35.0625 C15.38063204 37.70425581 21.77023517 39.98373765 28.25 48.5 C30.79982408 53.59964815 30.00544209 61.59655388 28.6015625 66.9921875 C25.539396 73.71848484 20.20150822 77.89889287 13.5625 80.875 C8.10670755 82.68350818 2.82135563 82.88822629 -2.875 82.9375 C-3.70990967 82.94765137 -4.54481934 82.95780273 -5.4050293 82.96826172 C-12.94014036 82.86283401 -20.10721367 81.30214333 -26.1875 76.625 C-26.82558594 76.15320313 -27.46367188 75.68140625 -28.12109375 75.1953125 C-29.75 73.5 -29.75 73.5 -31.75 68.5 C-28.45 65.53 -25.15 62.56 -21.75 59.5 C-20.0175 60.8921875 -20.0175 60.8921875 -18.25 62.3125 C-12.15219609 66.8616553 -6.48039752 69.31372605 1.25 68.5 C7.29041678 67.00570279 7.29041678 67.00570279 12.25 63.5 C12.85745728 58.02480216 12.85745728 58.02480216 10.75 53.1875 C5.6672133 49.75661898 0.34139868 48.5041267 -5.57226562 47.17285156 C-13.63968071 45.32174108 -20.596301 43.37063883 -26.17578125 36.828125 C-29.95384186 30.75206877 -29.55455216 23.38059712 -28.75 16.5 C-25.91241224 9.99719471 -19.580959 4.53951786 -13.03125 1.82421875 C-8.66692245 0.2946789 -4.60048221 -0.03935016 0 0 Z " fill="#4174B0" transform="translate(892.75,481.5)"/>
<path d="M0 0 C6.88168369 4.30105231 12.55711675 9.01631298 14.58203125 17.23828125 C16.03122497 26.38039114 15.22520389 34.57697663 11 42.875 C7.03746546 47.93823858 1.2925391 51.9642977 -4.9375 53.6875 C-5.948125 53.749375 -6.95875 53.81125 -8 53.875 C-8.66644531 53.94847656 -9.33289063 54.02195312 -10.01953125 54.09765625 C-17.51124829 54.60934971 -23.44067259 51.94683979 -29.08203125 47.078125 C-35.03344132 40.81348282 -37.08756786 34.47803127 -37.4375 25.9375 C-37.19398918 17.61578245 -34.46402598 10.40131603 -28.66796875 4.34765625 C-21.05920995 -2.37014719 -9.52484382 -3.60691364 0 0 Z " fill="#F6F5F6" transform="translate(774,497.125)"/>
<path d="M0 0 C5.40828063 4.26747144 9.26159127 9.11588845 10.31591797 16.08959961 C10.47371411 18.34033722 10.51865157 20.55637786 10.5 22.8125 C10.49500488 23.60422607 10.49000977 24.39595215 10.48486328 25.21166992 C10.26735322 32.5297585 8.54325529 38.10526898 3.54296875 43.6015625 C-2.91395476 49.42812672 -10.12759511 51.39399624 -18.59765625 51.28125 C-25.32946332 50.493136 -31.38354902 46.82628966 -36 42 C-41.91957759 34.0602491 -42.01785607 25.4583795 -41 16 C-39.4073521 8.79561038 -35.93708136 3.39783805 -30 -1 C-21.16030874 -6.45179196 -8.49854711 -5.64356644 0 0 Z " fill="#F7F5F6" transform="translate(1034,500)"/>
<path d="M0 0 C4.95 0 9.9 0 15 0 C15 7.26 15 14.52 15 22 C22.26 22 29.52 22 37 22 C37 26.29 37 30.58 37 35 C29.74 35 22.48 35 15 35 C15.07408175 41.29950321 15.15698834 47.59760814 15.26245117 53.89648438 C15.29564938 56.0380116 15.32369714 58.17962524 15.34643555 60.32128906 C15.38007504 63.40467054 15.43239654 66.48726369 15.48828125 69.5703125 C15.49467117 70.52366486 15.5010611 71.47701721 15.50764465 72.45925903 C15.62294024 77.70431372 16.062303 81.46682571 19 86 C22.36039226 88.64030821 25.8658996 88.28027799 30 88 C32.39778059 87.45886664 34.65838629 86.76460856 37 86 C37 90.62 37 95.24 37 100 C32.12509821 102.43745089 28.59788779 102.4024191 23.25 102.4375 C22.38117188 102.47037109 21.51234375 102.50324219 20.6171875 102.53710938 C14.20611012 102.59005371 9.89747628 101.21419568 5 97 C3.37890625 94.8671875 3.37890625 94.8671875 2.5625 92.875 C2.27503906 92.21242188 1.98757813 91.54984375 1.69140625 90.8671875 C0.39568136 87.36799825 -0.1227043 84.69524138 -0.11352539 80.9777832 C-0.11344986 79.95695145 -0.11337433 78.93611969 -0.11329651 77.88435364 C-0.10813522 76.78427475 -0.10297394 75.68419586 -0.09765625 74.55078125 C-0.0962413 73.4230278 -0.09482635 72.29527435 -0.09336853 71.13334656 C-0.0877647 67.52637088 -0.07521153 63.91945696 -0.0625 60.3125 C-0.05748549 57.86914152 -0.0529225 55.42578207 -0.04882812 52.98242188 C-0.03779403 46.98825741 -0.02052679 40.99413918 0 35 C-5.61 35 -11.22 35 -17 35 C-17 30.71 -17 26.42 -17 22 C-11.39 22 -5.78 22 0 22 C0 14.74 0 7.48 0 0 Z " fill="#4173B0" transform="translate(1085,462)"/>
<path d="M0 0 C4.95 0 9.9 0 15 0 C15 41.58 15 83.16 15 126 C10.05 126 5.1 126 0 126 C0 84.42 0 42.84 0 0 Z " fill="#4374B0" transform="translate(942,437)"/>
<path d="M0 0 C1.51897281 2.77747195 2.35908197 5.17817916 2.8515625 8.30078125 C2.98046875 9.11353516 3.109375 9.92628906 3.2421875 10.76367188 C3.36851562 11.60478516 3.49484375 12.44589844 3.625 13.3125 C3.82609375 14.55676758 3.82609375 14.55676758 4.03125 15.82617188 C4.77121774 20.6095348 5.0554403 25.14601656 5 30 C0.11346019 30.86864974 -4.77538278 31.72242302 -9.66674805 32.56347656 C-11.32465688 32.85057981 -12.98191191 33.14148904 -14.63842773 33.43652344 C-39.76046499 37.90333865 -39.76046499 37.90333865 -46.01098633 35.09716797 C-49.50221535 32.45352972 -51.53893126 29.05852428 -53 25 C-53.56138108 19.76044321 -52.85632372 16.43222647 -50 12 C-45.79650136 7.82828584 -41.87678717 6.97828102 -36.25 6 C-35.39760742 5.84047852 -34.54521484 5.68095703 -33.66699219 5.51660156 C-22.48263714 3.46380223 -11.23863695 1.72603264 0 0 Z " fill="#4073AF" transform="translate(328,569)"/>
<path d="M0 0 C4.95 0 9.9 0 15 0 C15 25.74 15 51.48 15 78 C10.05 78 5.1 78 0 78 C0 52.26 0 26.52 0 0 Z " fill="#3F72AF" transform="translate(828,484)"/>
<path d="M0 0 C6.50916126 3.26006896 9.92725237 8.36769461 12.19140625 15.16015625 C12.19140625 17.47015625 12.19140625 19.78015625 12.19140625 22.16015625 C-3.31859375 22.16015625 -18.82859375 22.16015625 -34.80859375 22.16015625 C-34.80859375 14.73653723 -32.9741139 11.36328654 -27.8359375 6.1640625 C-19.64423326 -1.20081552 -10.82593889 -3.23724181 0 0 Z " fill="#F4F3F5" transform="translate(678.80859375,494.83984375)"/>
<path d="M0 0 C2.87029869 1.79393668 4.49131638 2.98263276 6 6 C6.55112923 10.59876684 6.61753151 13.97787887 4.1875 18 C0.76688216 21.12742203 -2.44334973 21.33489089 -6.99609375 21.29296875 C-10.14507222 20.83259178 -11.834621 19.23099654 -14 17 C-15.72869779 13.54260443 -15.48966895 9.78024432 -15 6 C-11.10231905 -0.23628951 -6.98983895 -0.90541955 0 0 Z " fill="#4274B0" transform="translate(840,445)"/>
</svg>
